<svg width="1441" height="208" viewBox="0 0 1441 208" fill="none" xmlns="http://www.w3.org/2000/svg">
<rect width="1441" height="208" fill="white"/>
<g clip-path="url(#clip0_14224_683)">
<path d="M114.25 78V44.4H136.33V49.632H120.73V58.416H134.89V63.456H120.73V72.768H136.33V78H114.25ZM142.09 78V53.808H147.802L148.33 57.024C149.098 55.872 150.106 54.96 151.354 54.288C152.634 53.584 154.09 53.232 155.722 53.232C156.938 53.232 158.026 53.392 158.986 53.712C159.946 54.032 160.794 54.496 161.53 55.104C162.298 55.712 162.922 56.48 163.402 57.408C164.298 56.096 165.466 55.072 166.906 54.336C168.346 53.6 169.914 53.232 171.61 53.232C173.722 53.232 175.482 53.664 176.89 54.528C178.298 55.36 179.354 56.576 180.058 58.176C180.794 59.776 181.162 61.744 181.162 64.08V78H174.73V64.656C174.73 62.736 174.346 61.264 173.578 60.24C172.842 59.216 171.69 58.704 170.122 58.704C169.098 58.704 168.186 58.96 167.386 59.472C166.586 59.984 165.962 60.72 165.514 61.68C165.098 62.64 164.89 63.792 164.89 65.136V78H158.41V64.656C158.41 62.736 158.026 61.264 157.258 60.24C156.49 59.216 155.306 58.704 153.706 58.704C152.714 58.704 151.818 58.96 151.018 59.472C150.25 59.984 149.642 60.72 149.194 61.68C148.778 62.64 148.57 63.792 148.57 65.136V78H142.09ZM187.277 88.56V53.808H193.037L193.757 57.168C194.269 56.464 194.877 55.824 195.581 55.248C196.285 54.64 197.117 54.16 198.077 53.808C199.069 53.424 200.221 53.232 201.533 53.232C203.805 53.232 205.805 53.792 207.533 54.912C209.261 56.032 210.621 57.552 211.613 59.472C212.637 61.36 213.149 63.52 213.149 65.952C213.149 68.384 212.637 70.56 211.613 72.48C210.589 74.368 209.213 75.856 207.485 76.944C205.757 78.032 203.789 78.576 201.581 78.576C199.789 78.576 198.237 78.256 196.925 77.616C195.645 76.944 194.589 76.032 193.757 74.88V88.56H187.277ZM200.045 72.912C201.325 72.912 202.445 72.624 203.405 72.048C204.397 71.472 205.165 70.656 205.709 69.6C206.253 68.544 206.525 67.328 206.525 65.952C206.525 64.576 206.253 63.36 205.709 62.304C205.165 61.216 204.397 60.384 203.405 59.808C202.445 59.2 201.325 58.896 200.045 58.896C198.797 58.896 197.677 59.2 196.685 59.808C195.725 60.384 194.957 61.2 194.381 62.256C193.837 63.312 193.565 64.528 193.565 65.904C193.565 67.28 193.837 68.512 194.381 69.6C194.957 70.656 195.725 71.472 196.685 72.048C197.677 72.624 198.797 72.912 200.045 72.912ZM230.155 78.576C227.851 78.576 225.771 78.048 223.915 76.992C222.091 75.904 220.635 74.416 219.547 72.528C218.491 70.608 217.963 68.416 217.963 65.952C217.963 63.424 218.491 61.216 219.547 59.328C220.635 57.408 222.107 55.92 223.963 54.864C225.819 53.776 227.899 53.232 230.203 53.232C232.539 53.232 234.619 53.776 236.443 54.864C238.299 55.92 239.755 57.408 240.811 59.328C241.899 61.216 242.443 63.408 242.443 65.904C242.443 68.4 241.899 70.608 240.811 72.528C239.755 74.416 238.299 75.904 236.443 76.992C234.587 78.048 232.491 78.576 230.155 78.576ZM230.155 72.96C231.243 72.96 232.203 72.704 233.035 72.192C233.899 71.68 234.571 70.896 235.051 69.84C235.563 68.784 235.819 67.472 235.819 65.904C235.819 64.336 235.563 63.04 235.051 62.016C234.571 60.96 233.899 60.176 233.035 59.664C232.203 59.12 231.259 58.848 230.203 58.848C229.179 58.848 228.235 59.12 227.371 59.664C226.507 60.176 225.819 60.96 225.307 62.016C224.827 63.04 224.587 64.336 224.587 65.904C224.587 67.472 224.827 68.784 225.307 69.84C225.819 70.896 226.491 71.68 227.323 72.192C228.187 72.704 229.131 72.96 230.155 72.96ZM251.983 78L244.879 53.808H251.263L255.967 73.44L254.767 73.392L260.143 53.808H267.343L272.719 73.392L271.471 73.44L276.223 53.808H282.607L275.503 78H268.783L263.071 57.84H264.415L258.703 78H251.983ZM297.425 78.576C294.993 78.576 292.833 78.064 290.945 77.04C289.089 75.984 287.633 74.528 286.577 72.672C285.553 70.784 285.041 68.608 285.041 66.144C285.041 63.616 285.553 61.392 286.577 59.472C287.633 57.52 289.089 56 290.945 54.912C292.801 53.792 294.961 53.232 297.425 53.232C299.825 53.232 301.921 53.76 303.713 54.816C305.505 55.872 306.897 57.296 307.889 59.088C308.881 60.88 309.377 62.912 309.377 65.184C309.377 65.504 309.377 65.872 309.377 66.288C309.377 66.672 309.345 67.072 309.281 67.488H289.649V63.552H302.849C302.753 61.984 302.193 60.752 301.169 59.856C300.177 58.96 298.929 58.512 297.425 58.512C296.337 58.512 295.329 58.768 294.401 59.28C293.473 59.76 292.737 60.512 292.193 61.536C291.681 62.56 291.425 63.856 291.425 65.424V66.816C291.425 68.128 291.665 69.28 292.145 70.272C292.657 71.232 293.361 71.984 294.257 72.528C295.153 73.04 296.193 73.296 297.377 73.296C298.561 73.296 299.537 73.04 300.305 72.528C301.105 72.016 301.697 71.36 302.081 70.56H308.705C308.257 72.064 307.505 73.424 306.449 74.64C305.393 75.856 304.097 76.816 302.561 77.52C301.025 78.224 299.313 78.576 297.425 78.576ZM314.684 78V53.808H320.444L321.068 58.272C321.644 57.216 322.364 56.32 323.228 55.584C324.124 54.848 325.132 54.272 326.252 53.856C327.404 53.44 328.668 53.232 330.044 53.232V60.096H327.836C326.876 60.096 325.98 60.208 325.148 60.432C324.348 60.656 323.644 61.024 323.036 61.536C322.428 62.016 321.964 62.688 321.644 63.552C321.324 64.416 321.164 65.504 321.164 66.816V78H314.684ZM334.468 78V53.808H340.948V78H334.468ZM337.732 50.496C336.58 50.496 335.62 50.16 334.852 49.488C334.116 48.784 333.748 47.904 333.748 46.848C333.748 45.792 334.116 44.928 334.852 44.256C335.62 43.552 336.58 43.2 337.732 43.2C338.916 43.2 339.876 43.552 340.612 44.256C341.38 44.928 341.764 45.792 341.764 46.848C341.764 47.904 341.38 48.784 340.612 49.488C339.876 50.16 338.916 50.496 337.732 50.496ZM347.496 78V53.808H353.208L353.688 57.744C354.424 56.4 355.464 55.312 356.808 54.48C358.184 53.648 359.816 53.232 361.704 53.232C363.72 53.232 365.416 53.648 366.792 54.48C368.168 55.312 369.208 56.528 369.912 58.128C370.648 59.728 371.016 61.696 371.016 64.032V78H364.584V64.656C364.584 62.736 364.168 61.264 363.336 60.24C362.536 59.216 361.288 58.704 359.592 58.704C358.504 58.704 357.528 58.96 356.664 59.472C355.832 59.984 355.176 60.72 354.696 61.68C354.216 62.608 353.976 63.744 353.976 65.088V78H347.496ZM387.537 89.136C385.233 89.136 383.217 88.848 381.489 88.272C379.761 87.728 378.417 86.88 377.457 85.728C376.529 84.608 376.065 83.216 376.065 81.552C376.065 80.432 376.353 79.376 376.929 78.384C377.505 77.392 378.337 76.496 379.425 75.696C380.545 74.864 381.937 74.16 383.601 73.584L386.049 76.752C384.577 77.232 383.505 77.824 382.833 78.528C382.193 79.264 381.873 80.048 381.873 80.88C381.873 81.616 382.113 82.24 382.593 82.752C383.105 83.264 383.777 83.632 384.609 83.856C385.473 84.112 386.433 84.24 387.489 84.24C388.513 84.24 389.393 84.112 390.129 83.856C390.897 83.6 391.489 83.216 391.905 82.704C392.353 82.224 392.577 81.648 392.577 80.976C392.577 80.112 392.273 79.408 391.665 78.864C391.057 78.32 389.841 77.984 388.017 77.856C386.385 77.728 384.929 77.552 383.649 77.328C382.401 77.072 381.297 76.784 380.337 76.464C379.377 76.112 378.561 75.728 377.889 75.312C377.249 74.896 376.721 74.48 376.305 74.064V72.96L381.441 67.44L386.097 68.928L380.049 74.88L381.873 71.712C382.225 71.904 382.561 72.096 382.881 72.288C383.233 72.448 383.665 72.608 384.177 72.768C384.689 72.896 385.361 73.024 386.193 73.152C387.025 73.28 388.081 73.392 389.361 73.488C391.473 73.68 393.201 74.08 394.545 74.688C395.921 75.296 396.929 76.112 397.569 77.136C398.209 78.128 398.529 79.36 398.529 80.832C398.529 82.272 398.129 83.616 397.329 84.864C396.561 86.144 395.361 87.168 393.729 87.936C392.097 88.736 390.033 89.136 387.537 89.136ZM387.537 70.848C385.521 70.848 383.777 70.464 382.305 69.696C380.865 68.896 379.745 67.84 378.945 66.528C378.177 65.184 377.793 63.696 377.793 62.064C377.793 60.432 378.177 58.96 378.945 57.648C379.745 56.304 380.865 55.232 382.305 54.432C383.777 53.632 385.521 53.232 387.537 53.232C389.585 53.232 391.329 53.632 392.769 54.432C394.241 55.232 395.361 56.304 396.129 57.648C396.897 58.96 397.281 60.432 397.281 62.064C397.281 63.696 396.897 65.184 396.129 66.528C395.361 67.84 394.241 68.896 392.769 69.696C391.329 70.464 389.585 70.848 387.537 70.848ZM387.537 65.904C388.785 65.904 389.793 65.584 390.561 64.944C391.329 64.304 391.713 63.36 391.713 62.112C391.713 60.864 391.329 59.92 390.561 59.28C389.793 58.608 388.785 58.272 387.537 58.272C386.321 58.272 385.313 58.608 384.513 59.28C383.745 59.92 383.361 60.864 383.361 62.112C383.361 63.36 383.745 64.304 384.513 64.944C385.313 65.584 386.321 65.904 387.537 65.904ZM391.569 58.416L390.513 53.808H400.449V57.648L391.569 58.416ZM424.98 78V49.632H415.14V44.4H441.204V49.632H431.412V78H424.98ZM443.402 78V53.808H449.162L449.786 58.272C450.362 57.216 451.082 56.32 451.946 55.584C452.842 54.848 453.85 54.272 454.97 53.856C456.122 53.44 457.386 53.232 458.762 53.232V60.096H456.554C455.594 60.096 454.698 60.208 453.866 60.432C453.066 60.656 452.362 61.024 451.754 61.536C451.146 62.016 450.682 62.688 450.362 63.552C450.042 64.416 449.882 65.504 449.882 66.816V78H443.402ZM471.203 78.576C469.187 78.576 467.523 78.256 466.211 77.616C464.899 76.944 463.923 76.064 463.283 74.976C462.675 73.856 462.371 72.624 462.371 71.28C462.371 69.808 462.739 68.512 463.475 67.392C464.243 66.272 465.379 65.392 466.883 64.752C468.419 64.112 470.339 63.792 472.643 63.792H478.643C478.643 62.608 478.483 61.632 478.163 60.864C477.843 60.064 477.347 59.472 476.675 59.088C476.003 58.704 475.107 58.512 473.987 58.512C472.771 58.512 471.731 58.784 470.867 59.328C470.035 59.84 469.523 60.64 469.331 61.728H463.043C463.203 60 463.763 58.512 464.723 57.264C465.715 55.984 467.011 54.992 468.611 54.288C470.243 53.584 472.051 53.232 474.035 53.232C476.307 53.232 478.275 53.616 479.939 54.384C481.603 55.152 482.883 56.256 483.779 57.696C484.675 59.136 485.123 60.912 485.123 63.024V78H479.651L478.931 74.304C478.579 74.944 478.163 75.52 477.683 76.032C477.203 76.544 476.643 76.992 476.003 77.376C475.363 77.76 474.643 78.048 473.843 78.24C473.043 78.464 472.163 78.576 471.203 78.576ZM472.739 73.584C473.571 73.584 474.307 73.44 474.947 73.152C475.619 72.832 476.195 72.416 476.675 71.904C477.155 71.36 477.523 70.752 477.779 70.08C478.067 69.376 478.259 68.624 478.355 67.824V67.776H473.411C472.419 67.776 471.603 67.904 470.963 68.16C470.355 68.384 469.907 68.72 469.619 69.168C469.331 69.616 469.187 70.128 469.187 70.704C469.187 71.344 469.331 71.872 469.619 72.288C469.907 72.704 470.323 73.024 470.867 73.248C471.411 73.472 472.035 73.584 472.739 73.584ZM501.92 78.576C499.712 78.576 497.728 78.032 495.968 76.944C494.24 75.856 492.88 74.352 491.888 72.432C490.896 70.512 490.4 68.352 490.4 65.952C490.4 63.488 490.896 61.312 491.888 59.424C492.912 57.504 494.304 56 496.064 54.912C497.856 53.792 499.856 53.232 502.064 53.232C503.792 53.232 505.312 53.552 506.624 54.192C507.936 54.832 508.992 55.744 509.792 56.928V43.44H516.272V78H510.512L509.792 74.688C509.312 75.36 508.704 76 507.968 76.608C507.264 77.216 506.416 77.696 505.424 78.048C504.432 78.4 503.264 78.576 501.92 78.576ZM503.456 72.912C504.736 72.912 505.856 72.624 506.816 72.048C507.808 71.44 508.576 70.608 509.12 69.552C509.664 68.496 509.936 67.28 509.936 65.904C509.936 64.528 509.664 63.312 509.12 62.256C508.576 61.2 507.808 60.384 506.816 59.808C505.856 59.2 504.736 58.896 503.456 58.896C502.24 58.896 501.136 59.2 500.144 59.808C499.152 60.384 498.368 61.2 497.792 62.256C497.248 63.312 496.976 64.512 496.976 65.856C496.976 67.264 497.248 68.496 497.792 69.552C498.368 70.608 499.136 71.44 500.096 72.048C501.088 72.624 502.208 72.912 503.456 72.912ZM522.765 78V53.808H529.245V78H522.765ZM526.029 50.496C524.877 50.496 523.917 50.16 523.149 49.488C522.413 48.784 522.045 47.904 522.045 46.848C522.045 45.792 522.413 44.928 523.149 44.256C523.917 43.552 524.877 43.2 526.029 43.2C527.213 43.2 528.173 43.552 528.909 44.256C529.677 44.928 530.061 45.792 530.061 46.848C530.061 47.904 529.677 48.784 528.909 49.488C528.173 50.16 527.213 50.496 526.029 50.496ZM535.793 78V53.808H541.505L541.985 57.744C542.721 56.4 543.761 55.312 545.105 54.48C546.481 53.648 548.113 53.232 550.001 53.232C552.017 53.232 553.713 53.648 555.089 54.48C556.465 55.312 557.505 56.528 558.209 58.128C558.945 59.728 559.313 61.696 559.313 64.032V78H552.881V64.656C552.881 62.736 552.465 61.264 551.633 60.24C550.833 59.216 549.585 58.704 547.889 58.704C546.801 58.704 545.825 58.96 544.961 59.472C544.129 59.984 543.473 60.72 542.993 61.68C542.513 62.608 542.273 63.744 542.273 65.088V78H535.793ZM575.834 89.136C573.53 89.136 571.514 88.848 569.786 88.272C568.058 87.728 566.714 86.88 565.754 85.728C564.826 84.608 564.362 83.216 564.362 81.552C564.362 80.432 564.65 79.376 565.226 78.384C565.802 77.392 566.634 76.496 567.722 75.696C568.842 74.864 570.234 74.16 571.898 73.584L574.346 76.752C572.874 77.232 571.802 77.824 571.13 78.528C570.49 79.264 570.17 80.048 570.17 80.88C570.17 81.616 570.41 82.24 570.89 82.752C571.402 83.264 572.074 83.632 572.906 83.856C573.77 84.112 574.73 84.24 575.786 84.24C576.81 84.24 577.69 84.112 578.426 83.856C579.194 83.6 579.786 83.216 580.202 82.704C580.65 82.224 580.874 81.648 580.874 80.976C580.874 80.112 580.57 79.408 579.962 78.864C579.354 78.32 578.138 77.984 576.314 77.856C574.682 77.728 573.226 77.552 571.946 77.328C570.698 77.072 569.594 76.784 568.634 76.464C567.674 76.112 566.858 75.728 566.186 75.312C565.546 74.896 565.018 74.48 564.602 74.064V72.96L569.738 67.44L574.394 68.928L568.346 74.88L570.17 71.712C570.522 71.904 570.858 72.096 571.178 72.288C571.53 72.448 571.962 72.608 572.474 72.768C572.986 72.896 573.658 73.024 574.49 73.152C575.322 73.28 576.378 73.392 577.658 73.488C579.77 73.68 581.498 74.08 582.842 74.688C584.218 75.296 585.226 76.112 585.866 77.136C586.506 78.128 586.826 79.36 586.826 80.832C586.826 82.272 586.426 83.616 585.626 84.864C584.858 86.144 583.658 87.168 582.026 87.936C580.394 88.736 578.33 89.136 575.834 89.136ZM575.834 70.848C573.818 70.848 572.074 70.464 570.602 69.696C569.162 68.896 568.042 67.84 567.242 66.528C566.474 65.184 566.09 63.696 566.09 62.064C566.09 60.432 566.474 58.96 567.242 57.648C568.042 56.304 569.162 55.232 570.602 54.432C572.074 53.632 573.818 53.232 575.834 53.232C577.882 53.232 579.626 53.632 581.066 54.432C582.538 55.232 583.658 56.304 584.426 57.648C585.194 58.96 585.578 60.432 585.578 62.064C585.578 63.696 585.194 65.184 584.426 66.528C583.658 67.84 582.538 68.896 581.066 69.696C579.626 70.464 577.882 70.848 575.834 70.848ZM575.834 65.904C577.082 65.904 578.09 65.584 578.858 64.944C579.626 64.304 580.01 63.36 580.01 62.112C580.01 60.864 579.626 59.92 578.858 59.28C578.09 58.608 577.082 58.272 575.834 58.272C574.618 58.272 573.61 58.608 572.81 59.28C572.042 59.92 571.658 60.864 571.658 62.112C571.658 63.36 572.042 64.304 572.81 64.944C573.61 65.584 574.618 65.904 575.834 65.904ZM579.866 58.416L578.81 53.808H588.746V57.648L579.866 58.416ZM605.453 78V44.4H617.981C620.701 44.4 622.941 44.864 624.701 45.792C626.461 46.72 627.773 47.968 628.637 49.536C629.501 51.072 629.933 52.784 629.933 54.672C629.933 56.464 629.517 58.144 628.685 59.712C627.853 61.248 626.541 62.496 624.749 63.456C622.989 64.384 620.717 64.848 617.933 64.848H611.933V78H605.453ZM622.877 78L615.965 63.216H622.973L630.269 78H622.877ZM611.933 60.144H617.597C619.549 60.144 620.989 59.664 621.917 58.704C622.845 57.744 623.309 56.48 623.309 54.912C623.309 53.344 622.845 52.112 621.917 51.216C621.021 50.288 619.581 49.824 617.597 49.824H611.933V60.144ZM661.03 78L642.79 59.856C641.318 58.384 640.278 57.056 639.67 55.872C639.062 54.656 638.758 53.376 638.758 52.032C638.758 50.496 639.142 49.104 639.91 47.856C640.678 46.608 641.798 45.632 643.27 44.928C644.774 44.192 646.566 43.824 648.646 43.824C650.726 43.824 652.47 44.208 653.878 44.976C655.318 45.744 656.406 46.752 657.142 48C657.91 49.248 658.278 50.656 658.246 52.224H652.054C652.054 51.072 651.718 50.208 651.046 49.632C650.374 49.056 649.542 48.768 648.55 48.768C647.462 48.768 646.582 49.072 645.91 49.68C645.27 50.256 644.95 51.024 644.95 51.984C644.95 52.752 645.19 53.552 645.67 54.384C646.15 55.216 646.886 56.144 647.878 57.168L668.758 78H661.03ZM646.438 78.528C643.974 78.528 641.83 78.112 640.006 77.28C638.214 76.416 636.822 75.216 635.83 73.68C634.838 72.144 634.342 70.336 634.342 68.256C634.342 66.656 634.678 65.168 635.35 63.792C636.022 62.384 637.03 61.152 638.374 60.096C639.718 59.008 641.382 58.144 643.366 57.504L645.814 56.736L648.646 60.768L646.438 61.488C644.486 62.128 643.03 62.992 642.07 64.08C641.142 65.168 640.678 66.432 640.678 67.872C640.678 68.864 640.918 69.776 641.398 70.608C641.878 71.408 642.582 72.048 643.51 72.528C644.438 73.008 645.526 73.248 646.774 73.248C648.502 73.248 650.054 72.864 651.43 72.096C652.806 71.328 654.134 70.096 655.414 68.4C655.99 67.632 656.566 66.768 657.142 65.808C657.718 64.848 658.294 63.776 658.87 62.592L659.878 60.528H666.454L664.822 63.84C664.022 65.504 663.206 67.024 662.374 68.4C661.542 69.776 660.678 70.992 659.782 72.048C657.958 74.32 655.958 75.968 653.782 76.992C651.638 78.016 649.19 78.528 646.438 78.528ZM673.234 78V44.4H684.466C688.37 44.4 691.586 45.104 694.114 46.512C696.674 47.888 698.562 49.84 699.778 52.368C701.026 54.864 701.65 57.808 701.65 61.2C701.65 64.592 701.026 67.552 699.778 70.08C698.562 72.576 696.69 74.528 694.162 75.936C691.634 77.312 688.402 78 684.466 78H673.234ZM679.714 72.432H684.13C686.882 72.432 689.042 71.984 690.61 71.088C692.21 70.192 693.346 68.912 694.018 67.248C694.69 65.552 695.026 63.536 695.026 61.2C695.026 58.832 694.69 56.816 694.018 55.152C693.346 53.456 692.21 52.16 690.61 51.264C689.042 50.368 686.882 49.92 684.13 49.92H679.714V72.432ZM726.292 78V49.632H716.452V44.4H742.516V49.632H732.724V78H726.292ZM746.965 78V43.44H753.445V57.408C754.245 56.128 755.301 55.12 756.613 54.384C757.957 53.616 759.509 53.232 761.269 53.232C763.285 53.232 764.981 53.664 766.357 54.528C767.733 55.36 768.773 56.576 769.477 58.176C770.181 59.776 770.533 61.76 770.533 64.128V78H764.101V64.704C764.101 62.784 763.701 61.312 762.901 60.288C762.101 59.232 760.837 58.704 759.109 58.704C758.053 58.704 757.093 58.96 756.229 59.472C755.365 59.984 754.677 60.736 754.165 61.728C753.685 62.688 753.445 63.84 753.445 65.184V78H746.965ZM776.637 78V53.808H782.397L783.021 58.272C783.597 57.216 784.317 56.32 785.181 55.584C786.077 54.848 787.085 54.272 788.205 53.856C789.357 53.44 790.621 53.232 791.997 53.232V60.096H789.789C788.829 60.096 787.933 60.208 787.101 60.432C786.301 60.656 785.597 61.024 784.989 61.536C784.381 62.016 783.917 62.688 783.597 63.552C783.277 64.416 783.117 65.504 783.117 66.816V78H776.637ZM807.326 78.576C805.022 78.576 802.942 78.048 801.086 76.992C799.262 75.904 797.806 74.416 796.718 72.528C795.662 70.608 795.134 68.416 795.134 65.952C795.134 63.424 795.662 61.216 796.718 59.328C797.806 57.408 799.278 55.92 801.134 54.864C802.99 53.776 805.07 53.232 807.374 53.232C809.71 53.232 811.79 53.776 813.614 54.864C815.47 55.92 816.926 57.408 817.982 59.328C819.07 61.216 819.614 63.408 819.614 65.904C819.614 68.4 819.07 70.608 817.982 72.528C816.926 74.416 815.47 75.904 813.614 76.992C811.758 78.048 809.662 78.576 807.326 78.576ZM807.326 72.96C808.414 72.96 809.374 72.704 810.206 72.192C811.07 71.68 811.742 70.896 812.222 69.84C812.734 68.784 812.99 67.472 812.99 65.904C812.99 64.336 812.734 63.04 812.222 62.016C811.742 60.96 811.07 60.176 810.206 59.664C809.374 59.12 808.43 58.848 807.374 58.848C806.35 58.848 805.406 59.12 804.542 59.664C803.678 60.176 802.99 60.96 802.478 62.016C801.998 63.04 801.758 64.336 801.758 65.904C801.758 67.472 801.998 68.784 802.478 69.84C802.99 70.896 803.662 71.68 804.494 72.192C805.358 72.704 806.302 72.96 807.326 72.96ZM834.223 78.576C832.271 78.576 830.591 78.176 829.183 77.376C827.807 76.544 826.751 75.344 826.015 73.776C825.279 72.176 824.911 70.208 824.911 67.872V53.808H831.391V67.2C831.391 69.152 831.791 70.624 832.591 71.616C833.423 72.608 834.687 73.104 836.383 73.104C837.471 73.104 838.431 72.864 839.263 72.384C840.095 71.872 840.751 71.152 841.231 70.224C841.743 69.264 841.999 68.096 841.999 66.72V53.808H848.431V78H842.767L842.239 74.064C841.535 75.44 840.495 76.544 839.119 77.376C837.743 78.176 836.111 78.576 834.223 78.576ZM865.193 89.136C862.889 89.136 860.873 88.848 859.145 88.272C857.417 87.728 856.073 86.88 855.113 85.728C854.185 84.608 853.721 83.216 853.721 81.552C853.721 80.432 854.009 79.376 854.585 78.384C855.161 77.392 855.993 76.496 857.081 75.696C858.201 74.864 859.593 74.16 861.257 73.584L863.705 76.752C862.233 77.232 861.161 77.824 860.489 78.528C859.849 79.264 859.529 80.048 859.529 80.88C859.529 81.616 859.769 82.24 860.249 82.752C860.761 83.264 861.433 83.632 862.265 83.856C863.129 84.112 864.089 84.24 865.145 84.24C866.169 84.24 867.049 84.112 867.785 83.856C868.553 83.6 869.145 83.216 869.561 82.704C870.009 82.224 870.233 81.648 870.233 80.976C870.233 80.112 869.929 79.408 869.321 78.864C868.713 78.32 867.497 77.984 865.673 77.856C864.041 77.728 862.585 77.552 861.305 77.328C860.057 77.072 858.953 76.784 857.993 76.464C857.033 76.112 856.217 75.728 855.545 75.312C854.905 74.896 854.377 74.48 853.961 74.064V72.96L859.097 67.44L863.753 68.928L857.705 74.88L859.529 71.712C859.881 71.904 860.217 72.096 860.537 72.288C860.889 72.448 861.321 72.608 861.833 72.768C862.345 72.896 863.017 73.024 863.849 73.152C864.681 73.28 865.737 73.392 867.017 73.488C869.129 73.68 870.857 74.08 872.201 74.688C873.577 75.296 874.585 76.112 875.225 77.136C875.865 78.128 876.185 79.36 876.185 80.832C876.185 82.272 875.785 83.616 874.985 84.864C874.217 86.144 873.017 87.168 871.385 87.936C869.753 88.736 867.689 89.136 865.193 89.136ZM865.193 70.848C863.177 70.848 861.433 70.464 859.961 69.696C858.521 68.896 857.401 67.84 856.601 66.528C855.833 65.184 855.449 63.696 855.449 62.064C855.449 60.432 855.833 58.96 856.601 57.648C857.401 56.304 858.521 55.232 859.961 54.432C861.433 53.632 863.177 53.232 865.193 53.232C867.241 53.232 868.985 53.632 870.425 54.432C871.897 55.232 873.017 56.304 873.785 57.648C874.553 58.96 874.937 60.432 874.937 62.064C874.937 63.696 874.553 65.184 873.785 66.528C873.017 67.84 871.897 68.896 870.425 69.696C868.985 70.464 867.241 70.848 865.193 70.848ZM865.193 65.904C866.441 65.904 867.449 65.584 868.217 64.944C868.985 64.304 869.369 63.36 869.369 62.112C869.369 60.864 868.985 59.92 868.217 59.28C867.449 58.608 866.441 58.272 865.193 58.272C863.977 58.272 862.969 58.608 862.169 59.28C861.401 59.92 861.017 60.864 861.017 62.112C861.017 63.36 861.401 64.304 862.169 64.944C862.969 65.584 863.977 65.904 865.193 65.904ZM869.225 58.416L868.169 53.808H878.105V57.648L869.225 58.416ZM883.371 78V43.44H889.851V57.408C890.651 56.128 891.707 55.12 893.019 54.384C894.363 53.616 895.915 53.232 897.675 53.232C899.691 53.232 901.387 53.664 902.763 54.528C904.139 55.36 905.179 56.576 905.883 58.176C906.587 59.776 906.939 61.76 906.939 64.128V78H900.507V64.704C900.507 62.784 900.107 61.312 899.307 60.288C898.507 59.232 897.243 58.704 895.515 58.704C894.459 58.704 893.499 58.96 892.635 59.472C891.771 59.984 891.083 60.736 890.571 61.728C890.091 62.688 889.851 63.84 889.851 65.184V78H883.371ZM924.484 78V44.4H930.964V78H924.484ZM937.418 78V53.808H943.13L943.61 57.744C944.346 56.4 945.386 55.312 946.73 54.48C948.106 53.648 949.738 53.232 951.626 53.232C953.642 53.232 955.338 53.648 956.714 54.48C958.09 55.312 959.13 56.528 959.834 58.128C960.57 59.728 960.938 61.696 960.938 64.032V78H954.506V64.656C954.506 62.736 954.09 61.264 953.258 60.24C952.458 59.216 951.21 58.704 949.514 58.704C948.426 58.704 947.45 58.96 946.586 59.472C945.754 59.984 945.098 60.72 944.618 61.68C944.138 62.608 943.898 63.744 943.898 65.088V78H937.418ZM976.931 78.576C974.723 78.576 972.803 78.224 971.171 77.52C969.539 76.816 968.259 75.84 967.331 74.592C966.403 73.344 965.875 71.936 965.747 70.368H972.179C972.339 70.976 972.611 71.536 972.995 72.048C973.379 72.528 973.891 72.912 974.531 73.2C975.171 73.488 975.939 73.632 976.835 73.632C977.699 73.632 978.403 73.52 978.947 73.296C979.491 73.04 979.891 72.704 980.147 72.288C980.435 71.872 980.579 71.44 980.579 70.992C980.579 70.32 980.387 69.808 980.003 69.456C979.619 69.072 979.059 68.768 978.323 68.544C977.587 68.32 976.691 68.096 975.635 67.872C974.483 67.648 973.347 67.376 972.227 67.056C971.139 66.704 970.163 66.272 969.299 65.76C968.435 65.248 967.747 64.592 967.235 63.792C966.723 62.992 966.467 62 966.467 60.816C966.467 59.376 966.851 58.096 967.619 56.976C968.387 55.824 969.507 54.912 970.979 54.24C972.451 53.568 974.227 53.232 976.307 53.232C979.219 53.232 981.523 53.888 983.219 55.2C984.915 56.512 985.923 58.32 986.243 60.624H980.147C979.955 59.888 979.523 59.312 978.851 58.896C978.211 58.448 977.347 58.224 976.259 58.224C975.107 58.224 974.227 58.432 973.619 58.848C973.011 59.264 972.707 59.808 972.707 60.48C972.707 60.928 972.899 61.328 973.283 61.68C973.699 62.032 974.275 62.336 975.011 62.592C975.747 62.816 976.643 63.04 977.699 63.264C979.555 63.648 981.187 64.096 982.595 64.608C984.003 65.088 985.107 65.792 985.907 66.72C986.707 67.616 987.107 68.928 987.107 70.656C987.107 72.192 986.691 73.568 985.859 74.784C985.027 75.968 983.843 76.896 982.307 77.568C980.803 78.24 979.011 78.576 976.931 78.576ZM1002.74 78C1001.04 78 999.552 77.744 998.272 77.232C997.024 76.688 996.048 75.808 995.344 74.592C994.64 73.344 994.288 71.648 994.288 69.504V59.232H990.16V53.808H994.288L995.008 47.232H1000.77V53.808H1007.15V59.232H1000.77V69.6C1000.77 70.688 1001.01 71.44 1001.49 71.856C1001.97 72.272 1002.78 72.48 1003.94 72.48H1007.1V78H1002.74ZM1012.75 78V53.808H1019.23V78H1012.75ZM1016.01 50.496C1014.86 50.496 1013.9 50.16 1013.13 49.488C1012.4 48.784 1012.03 47.904 1012.03 46.848C1012.03 45.792 1012.4 44.928 1013.13 44.256C1013.9 43.552 1014.86 43.2 1016.01 43.2C1017.2 43.2 1018.16 43.552 1018.89 44.256C1019.66 44.928 1020.05 45.792 1020.05 46.848C1020.05 47.904 1019.66 48.784 1018.89 49.488C1018.16 50.16 1017.2 50.496 1016.01 50.496ZM1036.67 78C1034.98 78 1033.49 77.744 1032.21 77.232C1030.96 76.688 1029.99 75.808 1029.28 74.592C1028.58 73.344 1028.23 71.648 1028.23 69.504V59.232H1024.1V53.808H1028.23L1028.95 47.232H1034.71V53.808H1041.09V59.232H1034.71V69.6C1034.71 70.688 1034.95 71.44 1035.43 71.856C1035.91 72.272 1036.72 72.48 1037.87 72.48H1041.04V78H1036.67ZM1055.57 78.576C1053.62 78.576 1051.94 78.176 1050.53 77.376C1049.15 76.544 1048.1 75.344 1047.36 73.776C1046.62 72.176 1046.26 70.208 1046.26 67.872V53.808H1052.74V67.2C1052.74 69.152 1053.14 70.624 1053.94 71.616C1054.77 72.608 1056.03 73.104 1057.73 73.104C1058.82 73.104 1059.78 72.864 1060.61 72.384C1061.44 71.872 1062.1 71.152 1062.58 70.224C1063.09 69.264 1063.34 68.096 1063.34 66.72V53.808H1069.78V78H1064.11L1063.58 74.064C1062.88 75.44 1061.84 76.544 1060.46 77.376C1059.09 78.176 1057.46 78.576 1055.57 78.576ZM1087.02 78C1085.32 78 1083.83 77.744 1082.55 77.232C1081.31 76.688 1080.33 75.808 1079.63 74.592C1078.92 73.344 1078.57 71.648 1078.57 69.504V59.232H1074.44V53.808H1078.57L1079.29 47.232H1085.05V53.808H1091.43V59.232H1085.05V69.6C1085.05 70.688 1085.29 71.44 1085.77 71.856C1086.25 72.272 1087.07 72.48 1088.22 72.48H1091.39V78H1087.02ZM1097.03 78V53.808H1103.51V78H1097.03ZM1100.29 50.496C1099.14 50.496 1098.18 50.16 1097.41 49.488C1096.68 48.784 1096.31 47.904 1096.31 46.848C1096.31 45.792 1096.68 44.928 1097.41 44.256C1098.18 43.552 1099.14 43.2 1100.29 43.2C1101.48 43.2 1102.44 43.552 1103.17 44.256C1103.94 44.928 1104.33 45.792 1104.33 46.848C1104.33 47.904 1103.94 48.784 1103.17 49.488C1102.44 50.16 1101.48 50.496 1100.29 50.496ZM1121.48 78.576C1119.18 78.576 1117.1 78.048 1115.24 76.992C1113.42 75.904 1111.96 74.416 1110.87 72.528C1109.82 70.608 1109.29 68.416 1109.29 65.952C1109.29 63.424 1109.82 61.216 1110.87 59.328C1111.96 57.408 1113.43 55.92 1115.29 54.864C1117.15 53.776 1119.23 53.232 1121.53 53.232C1123.87 53.232 1125.95 53.776 1127.77 54.864C1129.63 55.92 1131.08 57.408 1132.14 59.328C1133.23 61.216 1133.77 63.408 1133.77 65.904C1133.77 68.4 1133.23 70.608 1132.14 72.528C1131.08 74.416 1129.63 75.904 1127.77 76.992C1125.91 78.048 1123.82 78.576 1121.48 78.576ZM1121.48 72.96C1122.57 72.96 1123.53 72.704 1124.36 72.192C1125.23 71.68 1125.9 70.896 1126.38 69.84C1126.89 68.784 1127.15 67.472 1127.15 65.904C1127.15 64.336 1126.89 63.04 1126.38 62.016C1125.9 60.96 1125.23 60.176 1124.36 59.664C1123.53 59.12 1122.59 58.848 1121.53 58.848C1120.51 58.848 1119.56 59.12 1118.7 59.664C1117.83 60.176 1117.15 60.96 1116.63 62.016C1116.15 63.04 1115.91 64.336 1115.91 65.904C1115.91 67.472 1116.15 68.784 1116.63 69.84C1117.15 70.896 1117.82 71.68 1118.65 72.192C1119.51 72.704 1120.46 72.96 1121.48 72.96ZM1139.36 78V53.808H1145.07L1145.55 57.744C1146.28 56.4 1147.32 55.312 1148.67 54.48C1150.04 53.648 1151.68 53.232 1153.56 53.232C1155.58 53.232 1157.28 53.648 1158.65 54.48C1160.03 55.312 1161.07 56.528 1161.77 58.128C1162.51 59.728 1162.88 61.696 1162.88 64.032V78H1156.44V64.656C1156.44 62.736 1156.03 61.264 1155.2 60.24C1154.4 59.216 1153.15 58.704 1151.45 58.704C1150.36 58.704 1149.39 58.96 1148.52 59.472C1147.69 59.984 1147.04 60.72 1146.56 61.68C1146.08 62.608 1145.84 63.744 1145.84 65.088V78H1139.36ZM1177.14 78.576C1175.12 78.576 1173.46 78.256 1172.15 77.616C1170.84 76.944 1169.86 76.064 1169.22 74.976C1168.61 73.856 1168.31 72.624 1168.31 71.28C1168.31 69.808 1168.68 68.512 1169.41 67.392C1170.18 66.272 1171.32 65.392 1172.82 64.752C1174.36 64.112 1176.28 63.792 1178.58 63.792H1184.58C1184.58 62.608 1184.42 61.632 1184.1 60.864C1183.78 60.064 1183.28 59.472 1182.61 59.088C1181.94 58.704 1181.04 58.512 1179.92 58.512C1178.71 58.512 1177.67 58.784 1176.8 59.328C1175.97 59.84 1175.46 60.64 1175.27 61.728H1168.98C1169.14 60 1169.7 58.512 1170.66 57.264C1171.65 55.984 1172.95 54.992 1174.55 54.288C1176.18 53.584 1177.99 53.232 1179.97 53.232C1182.24 53.232 1184.21 53.616 1185.88 54.384C1187.54 55.152 1188.82 56.256 1189.72 57.696C1190.61 59.136 1191.06 60.912 1191.06 63.024V78H1185.59L1184.87 74.304C1184.52 74.944 1184.1 75.52 1183.62 76.032C1183.14 76.544 1182.58 76.992 1181.94 77.376C1181.3 77.76 1180.58 78.048 1179.78 78.24C1178.98 78.464 1178.1 78.576 1177.14 78.576ZM1178.68 73.584C1179.51 73.584 1180.24 73.44 1180.88 73.152C1181.56 72.832 1182.13 72.416 1182.61 71.904C1183.09 71.36 1183.46 70.752 1183.72 70.08C1184 69.376 1184.2 68.624 1184.29 67.824V67.776H1179.35C1178.36 67.776 1177.54 67.904 1176.9 68.16C1176.29 68.384 1175.84 68.72 1175.56 69.168C1175.27 69.616 1175.12 70.128 1175.12 70.704C1175.12 71.344 1175.27 71.872 1175.56 72.288C1175.84 72.704 1176.26 73.024 1176.8 73.248C1177.35 73.472 1177.97 73.584 1178.68 73.584ZM1197.11 78V43.44H1203.59V78H1197.11ZM1229.17 78V49.632H1219.33V44.4H1245.39V49.632H1235.6V78H1229.17ZM1257.14 78.576C1254.71 78.576 1252.55 78.064 1250.66 77.04C1248.81 75.984 1247.35 74.528 1246.3 72.672C1245.27 70.784 1244.76 68.608 1244.76 66.144C1244.76 63.616 1245.27 61.392 1246.3 59.472C1247.35 57.52 1248.81 56 1250.66 54.912C1252.52 53.792 1254.68 53.232 1257.14 53.232C1259.54 53.232 1261.64 53.76 1263.43 54.816C1265.22 55.872 1266.62 57.296 1267.61 59.088C1268.6 60.88 1269.1 62.912 1269.1 65.184C1269.1 65.504 1269.1 65.872 1269.1 66.288C1269.1 66.672 1269.06 67.072 1269 67.488H1249.37V63.552H1262.57C1262.47 61.984 1261.91 60.752 1260.89 59.856C1259.9 58.96 1258.65 58.512 1257.14 58.512C1256.06 58.512 1255.05 58.768 1254.12 59.28C1253.19 59.76 1252.46 60.512 1251.91 61.536C1251.4 62.56 1251.14 63.856 1251.14 65.424V66.816C1251.14 68.128 1251.38 69.28 1251.86 70.272C1252.38 71.232 1253.08 71.984 1253.98 72.528C1254.87 73.04 1255.91 73.296 1257.1 73.296C1258.28 73.296 1259.26 73.04 1260.02 72.528C1260.82 72.016 1261.42 71.36 1261.8 70.56H1268.42C1267.98 72.064 1267.22 73.424 1266.17 74.64C1265.11 75.856 1263.82 76.816 1262.28 77.52C1260.74 78.224 1259.03 78.576 1257.14 78.576ZM1286.11 78.576C1283.68 78.576 1281.52 78.032 1279.63 76.944C1277.75 75.856 1276.27 74.368 1275.22 72.48C1274.16 70.592 1273.63 68.432 1273.63 66C1273.63 63.504 1274.16 61.312 1275.22 59.424C1276.27 57.504 1277.75 56 1279.63 54.912C1281.52 53.792 1283.68 53.232 1286.11 53.232C1289.22 53.232 1291.83 54.048 1293.94 55.68C1296.05 57.312 1297.39 59.552 1297.97 62.4H1291.11C1290.82 61.28 1290.21 60.4 1289.28 59.76C1288.39 59.12 1287.31 58.8 1286.07 58.8C1284.95 58.8 1283.94 59.088 1283.04 59.664C1282.18 60.208 1281.49 61.024 1280.98 62.112C1280.5 63.168 1280.26 64.432 1280.26 65.904C1280.26 67.024 1280.4 68.032 1280.69 68.928C1280.98 69.792 1281.38 70.544 1281.89 71.184C1282.4 71.792 1283.01 72.256 1283.71 72.576C1284.45 72.896 1285.23 73.056 1286.07 73.056C1286.9 73.056 1287.65 72.912 1288.32 72.624C1289.03 72.336 1289.62 71.936 1290.1 71.424C1290.58 70.88 1290.91 70.224 1291.11 69.456H1297.97C1297.39 72.24 1296.03 74.464 1293.89 76.128C1291.78 77.76 1289.19 78.576 1286.11 78.576ZM1303.56 78V43.44H1310.04V57.408C1310.84 56.128 1311.89 55.12 1313.21 54.384C1314.55 53.616 1316.1 53.232 1317.86 53.232C1319.88 53.232 1321.57 53.664 1322.95 54.528C1324.33 55.36 1325.37 56.576 1326.07 58.176C1326.77 59.776 1327.13 61.76 1327.13 64.128V78H1320.69V64.704C1320.69 62.784 1320.29 61.312 1319.49 60.288C1318.69 59.232 1317.43 58.704 1315.7 58.704C1314.65 58.704 1313.69 58.96 1312.82 59.472C1311.96 59.984 1311.27 60.736 1310.76 61.728C1310.28 62.688 1310.04 63.84 1310.04 65.184V78H1303.56Z" fill="#151329"/>
<rect width="1268" height="49" transform="translate(86.5 111)" fill="white"/>
<path d="M282.109 147.268V126.509L284.856 126.504V136.798L295.165 126.483L298.889 126.475L290.181 134.904L299.271 147.233L295.646 147.24L288.255 136.749L284.856 140.069V147.262L282.109 147.268ZM301.565 147.228V126.47L308.716 126.455C310.331 126.452 311.562 126.548 312.412 126.745C313.602 127.016 314.616 127.51 315.457 128.225C316.552 129.148 317.368 130.331 317.906 131.775C318.454 133.208 318.728 134.851 318.728 136.701C318.728 138.277 318.543 139.675 318.175 140.893C317.807 142.112 317.335 143.123 316.759 143.926C316.183 144.721 315.551 145.35 314.862 145.814C314.182 146.268 313.356 146.614 312.384 146.852C311.421 147.09 310.312 147.211 309.056 147.213L301.565 147.228ZM304.312 144.773L308.745 144.764C310.113 144.761 311.185 144.632 311.959 144.375C312.743 144.119 313.366 143.759 313.828 143.295C314.479 142.643 314.985 141.768 315.343 140.673C315.711 139.567 315.896 138.231 315.896 136.664C315.896 134.493 315.537 132.827 314.819 131.668C314.111 130.499 313.248 129.717 312.228 129.322C311.492 129.041 310.307 128.901 308.674 128.905L304.312 128.914V144.773ZM322.409 147.186V126.427L330.197 126.411C331.783 126.408 333.053 126.618 334.006 127.041C334.969 127.454 335.72 128.099 336.258 128.976C336.805 129.844 337.079 130.754 337.079 131.707C337.079 132.595 336.838 133.431 336.357 134.215C335.875 135 335.149 135.634 334.176 136.117C335.432 136.483 336.395 137.109 337.065 137.995C337.745 138.881 338.084 139.928 338.084 141.136C338.084 142.108 337.877 143.015 337.461 143.856C337.056 144.688 336.55 145.331 335.946 145.785C335.342 146.239 334.582 146.585 333.667 146.823C332.76 147.052 331.646 147.167 330.325 147.17L322.409 147.186ZM325.156 135.144L329.645 135.135C330.863 135.133 331.736 135.051 332.265 134.889C332.963 134.68 333.487 134.334 333.836 133.852C334.195 133.37 334.375 132.765 334.375 132.039C334.375 131.349 334.209 130.746 333.879 130.227C333.549 129.699 333.076 129.341 332.463 129.154C331.849 128.957 330.797 128.86 329.305 128.863L325.156 128.871V135.144ZM325.156 144.731L330.325 144.72C331.212 144.718 331.835 144.684 332.194 144.617C332.826 144.503 333.355 144.313 333.78 144.048C334.205 143.782 334.554 143.399 334.828 142.899C335.101 142.388 335.238 141.803 335.238 141.142C335.238 140.368 335.04 139.698 334.644 139.132C334.247 138.557 333.695 138.157 332.987 137.932C332.288 137.697 331.278 137.582 329.957 137.584L325.156 137.594V144.731ZM346.892 143.78V138.088L341.242 138.099V135.72L346.892 135.709V130.059L349.299 130.054V135.704L354.949 135.693V138.071L349.299 138.083V143.775L346.892 143.78Z" fill="#767494"/>
<path d="M282.109 147.268L281.609 147.269V147.769L282.109 147.768V147.268ZM282.109 126.509V126.009L281.609 126.01V126.51L282.109 126.509ZM284.856 126.504L285.356 126.503V126.003L284.856 126.004V126.504ZM284.856 136.798L284.356 136.799V138.005L285.21 137.151L284.856 136.798ZM295.165 126.483V125.983L294.958 125.983L294.812 126.129L295.165 126.483ZM298.889 126.475L299.237 126.834L300.127 125.972L298.889 125.975V126.475ZM290.181 134.904L289.833 134.545L289.519 134.849L289.778 135.201L290.181 134.904ZM299.271 147.233V147.733L300.26 147.731L299.674 146.936L299.271 147.233ZM295.646 147.24L295.238 147.529L295.387 147.741L295.646 147.74V147.24ZM288.255 136.749L288.664 136.46L288.326 135.981L287.906 136.391L288.255 136.749ZM284.856 140.069L284.507 139.712L284.356 139.859V140.07L284.856 140.069ZM284.856 147.262V147.762L285.356 147.761V147.261L284.856 147.262ZM282.609 147.267V126.508L281.609 126.51V147.269L282.609 147.267ZM282.109 127.009L284.856 127.004V126.004L282.109 126.009V127.009ZM284.356 126.505V136.799L285.356 136.797V126.503L284.356 126.505ZM285.21 137.151L295.518 126.836L294.812 126.129L284.503 136.445L285.21 137.151ZM295.165 126.983L298.889 126.975V125.975L295.165 125.983V126.983ZM298.542 126.116L289.833 134.545L290.528 135.263L299.237 126.834L298.542 126.116ZM289.778 135.201L298.869 147.53L299.674 146.936L290.583 134.607L289.778 135.201ZM299.271 146.733L295.646 146.74V147.74L299.271 147.733V146.733ZM296.055 146.952L288.664 136.46L287.846 137.037L295.238 147.529L296.055 146.952ZM287.906 136.391L284.507 139.712L285.205 140.426L288.604 137.106L287.906 136.391ZM284.356 140.07V147.263L285.356 147.261V140.068L284.356 140.07ZM284.856 146.762L282.109 146.768V147.768L284.856 147.762V146.762ZM301.565 147.228L301.065 147.229V147.729L301.565 147.728V147.228ZM301.565 126.47V125.97L301.065 125.971V126.471L301.565 126.47ZM312.412 126.745L312.298 127.232L312.3 127.232L312.412 126.745ZM315.457 128.225L315.132 128.606L315.134 128.608L315.457 128.225ZM317.906 131.775L317.438 131.95L317.439 131.954L317.906 131.775ZM316.759 143.926L317.164 144.219L317.165 144.217L316.759 143.926ZM314.862 145.814L315.139 146.229L315.14 146.228L314.862 145.814ZM312.384 146.852L312.266 146.367L312.265 146.367L312.384 146.852ZM304.312 144.773L303.812 144.774V145.274L304.312 145.273V144.773ZM311.959 144.375L311.804 143.9L311.803 143.901L311.959 144.375ZM313.828 143.295L313.475 142.942L313.828 143.295ZM315.343 140.673L314.869 140.515L314.868 140.518L315.343 140.673ZM314.819 131.668L314.391 131.927L314.394 131.931L314.819 131.668ZM312.228 129.322L312.409 128.856L312.408 128.855L312.228 129.322ZM304.312 128.914V128.414L303.812 128.415V128.915L304.312 128.914ZM302.065 147.227V126.469L301.065 126.471V147.229L302.065 147.227ZM301.565 126.97L308.716 126.955V125.955L301.565 125.97V126.97ZM308.716 126.955C310.319 126.952 311.505 127.049 312.298 127.232L312.526 126.258C311.62 126.048 310.342 125.952 308.716 125.955V126.955ZM312.3 127.232C313.419 127.488 314.359 127.948 315.132 128.606L315.781 127.845C314.874 127.071 313.784 126.545 312.524 126.257L312.3 127.232ZM315.134 128.608C316.158 129.472 316.927 130.581 317.438 131.95L318.375 131.599C317.809 130.082 316.945 128.825 315.779 127.843L315.134 128.608ZM317.439 131.954C317.961 133.32 318.228 134.9 318.228 136.702L319.228 136.7C319.228 134.801 318.947 133.096 318.373 131.596L317.439 131.954ZM318.228 136.702C318.228 138.24 318.048 139.588 317.697 140.75L318.654 141.037C319.039 139.762 319.228 138.314 319.228 136.7L318.228 136.702ZM317.697 140.75C317.34 141.93 316.889 142.888 316.353 143.636L317.165 144.217C317.781 143.358 318.274 142.294 318.654 141.037L317.697 140.75ZM316.355 143.633C315.807 144.388 315.216 144.973 314.583 145.399L315.14 146.228C315.886 145.726 316.56 145.053 317.164 144.219L316.355 143.633ZM314.584 145.398C313.963 145.814 313.194 146.14 312.266 146.367L312.502 147.338C313.519 147.089 314.401 146.723 315.139 146.229L314.584 145.398ZM312.265 146.367C311.35 146.593 310.282 146.711 309.056 146.713V147.713C310.342 147.711 311.492 147.587 312.503 147.338L312.265 146.367ZM309.056 146.713L301.565 146.728V147.728L309.056 147.713V146.713ZM304.312 145.273L308.745 145.264V144.264L304.312 144.273V145.273ZM308.745 145.264C310.136 145.261 311.268 145.13 312.115 144.85L311.803 143.901C311.102 144.133 310.091 144.261 308.745 144.264V145.264ZM312.114 144.85C312.953 144.576 313.651 144.18 314.182 143.648L313.475 142.942C313.08 143.337 312.532 143.662 311.804 143.9L312.114 144.85ZM314.182 143.648C314.901 142.928 315.441 141.979 315.818 140.827L314.868 140.518C314.528 141.557 314.058 142.358 313.475 142.942L314.182 143.648ZM315.818 140.83C316.207 139.659 316.396 138.266 316.396 136.663L315.396 136.665C315.396 138.196 315.215 139.475 314.869 140.515L315.818 140.83ZM316.396 136.663C316.396 134.449 316.032 132.676 315.245 131.404L314.394 131.931C315.042 132.978 315.396 134.537 315.396 136.665L316.396 136.663ZM315.247 131.408C314.497 130.169 313.555 129.299 312.409 128.856L312.047 129.789C312.94 130.134 313.726 130.828 314.392 131.927L315.247 131.408ZM312.408 128.855C311.58 128.539 310.317 128.401 308.674 128.405V129.405C310.297 129.402 311.403 129.543 312.049 129.789L312.408 128.855ZM308.674 128.405L304.312 128.414V129.414L308.674 129.405V128.405ZM303.812 128.915V144.774L304.812 144.772V128.913L303.812 128.915ZM322.409 147.186L321.909 147.187V147.687L322.409 147.686V147.186ZM322.409 126.427V125.927L321.909 125.928V126.428L322.409 126.427ZM334.006 127.041L333.803 127.498L333.808 127.5L334.006 127.041ZM336.258 128.976L335.831 129.238L335.835 129.244L336.258 128.976ZM334.176 136.117L333.954 135.669L332.808 136.24L334.036 136.597L334.176 136.117ZM337.065 137.995L336.666 138.297L336.668 138.299L337.065 137.995ZM337.461 143.856L337.013 143.635L337.012 143.637L337.461 143.856ZM333.667 146.823L333.788 147.308L333.791 147.307L333.667 146.823ZM325.156 135.144L324.656 135.145V135.645L325.156 135.644V135.144ZM332.265 134.889L332.122 134.41L332.119 134.411L332.265 134.889ZM333.836 133.852L333.435 133.554L333.432 133.559L333.836 133.852ZM333.879 130.227L333.455 130.493L333.457 130.496L333.879 130.227ZM332.463 129.154L332.309 129.63L332.316 129.632L332.463 129.154ZM325.156 128.871V128.371L324.656 128.372V128.872L325.156 128.871ZM325.156 144.731L324.656 144.732V145.232L325.156 145.231V144.731ZM332.194 144.617L332.106 144.125L332.103 144.126L332.194 144.617ZM334.828 142.899L335.266 143.138L335.268 143.134L334.828 142.899ZM334.644 139.132L334.232 139.417L334.234 139.42L334.644 139.132ZM332.987 137.932L332.827 138.406L332.834 138.409L332.987 137.932ZM325.156 137.594V137.094L324.656 137.095V137.595L325.156 137.594ZM322.909 147.185V126.426L321.909 126.428V147.187L322.909 147.185ZM322.409 126.927L330.197 126.911V125.911L322.409 125.927V126.927ZM330.197 126.911C331.746 126.908 332.938 127.114 333.803 127.498L334.21 126.584C333.168 126.122 331.82 125.908 330.197 125.911V126.911ZM333.808 127.5C334.678 127.874 335.348 128.451 335.832 129.238L336.684 128.714C336.091 127.748 335.26 127.035 334.204 126.581L333.808 127.5ZM335.835 129.244C336.336 130.038 336.579 130.857 336.579 131.708L337.579 131.706C337.579 130.651 337.275 129.649 336.681 128.709L335.835 129.244ZM336.579 131.708C336.579 132.5 336.366 133.246 335.931 133.954L336.783 134.476C337.311 133.616 337.579 132.69 337.579 131.706L336.579 131.708ZM335.931 133.954C335.507 134.645 334.858 135.22 333.954 135.669L334.398 136.565C335.439 136.047 336.244 135.354 336.783 134.476L335.931 133.954ZM334.036 136.597C335.207 136.938 336.071 137.511 336.666 138.297L337.464 137.692C336.718 136.706 335.657 136.027 334.317 135.637L334.036 136.597ZM336.668 138.299C337.275 139.091 337.584 140.029 337.584 141.137L338.584 141.135C338.584 139.826 338.214 138.67 337.462 137.69L336.668 138.299ZM337.584 141.137C337.584 142.035 337.393 142.866 337.013 143.635L337.91 144.077C338.36 143.164 338.584 142.181 338.584 141.135L337.584 141.137ZM337.012 143.637C336.633 144.414 336.174 144.988 335.646 145.386L336.246 146.184C336.926 145.673 337.478 144.962 337.911 144.075L337.012 143.637ZM335.646 145.386C335.106 145.792 334.409 146.114 333.542 146.339L333.791 147.307C334.755 147.057 335.578 146.687 336.246 146.184L335.646 145.386ZM333.545 146.338C332.691 146.554 331.621 146.667 330.325 146.67V147.67C331.672 147.667 332.829 147.55 333.788 147.308L333.545 146.338ZM330.325 146.67L322.409 146.686V147.686L330.325 147.67V146.67ZM325.156 135.644L329.645 135.635V134.635L325.156 134.644V135.644ZM329.645 135.635C330.867 135.633 331.805 135.552 332.41 135.367L332.119 134.411C331.667 134.549 330.858 134.633 329.645 134.635V135.635ZM332.407 135.368C333.187 135.135 333.814 134.735 334.241 134.145L333.432 133.559C333.161 133.934 332.74 134.225 332.122 134.41L332.407 135.368ZM334.237 134.15C334.673 133.565 334.875 132.849 334.875 132.038L333.875 132.04C333.875 132.682 333.717 133.176 333.435 133.554L334.237 134.15ZM334.875 132.038C334.875 131.265 334.688 130.566 334.301 129.958L333.457 130.496C333.73 130.925 333.875 131.434 333.875 132.04L334.875 132.038ZM334.303 129.961C333.907 129.328 333.335 128.897 332.61 128.676L332.316 129.632C332.818 129.786 333.19 130.07 333.455 130.493L334.303 129.961ZM332.617 128.678C331.921 128.454 330.799 128.36 329.305 128.363V129.363C330.795 129.36 331.777 129.459 332.309 129.63L332.617 128.678ZM329.305 128.363L325.156 128.371V129.371L329.305 129.363V128.363ZM324.656 128.872V135.145L325.656 135.143V128.87L324.656 128.872ZM325.156 145.231L330.325 145.22V144.22L325.156 144.231V145.231ZM330.325 145.22C331.212 145.218 331.876 145.185 332.284 145.109L332.103 144.126C331.794 144.183 331.213 144.218 330.325 144.22V145.22ZM332.282 145.109C332.96 144.986 333.552 144.778 334.044 144.472L333.516 143.624C333.158 143.847 332.693 144.019 332.106 144.125L332.282 145.109ZM334.044 144.472C334.552 144.155 334.957 143.703 335.266 143.138L334.389 142.659C334.151 143.095 333.858 143.41 333.516 143.624L334.044 144.472ZM335.268 143.134C335.586 142.541 335.738 141.872 335.738 141.141L334.738 141.143C334.738 141.733 334.617 142.235 334.387 142.663L335.268 143.134ZM335.738 141.141C335.738 140.277 335.515 139.504 335.053 138.845L334.234 139.42C334.565 139.892 334.738 140.459 334.738 141.143L335.738 141.141ZM335.055 138.848C334.592 138.176 333.945 137.712 333.139 137.456L332.834 138.409C333.444 138.602 333.902 138.939 334.232 139.417L335.055 138.848ZM333.147 137.458C332.371 137.198 331.297 137.081 329.957 137.084V138.084C331.26 138.082 332.205 138.197 332.827 138.406L333.147 137.458ZM329.957 137.084L325.156 137.094V138.094L329.957 138.084V137.084ZM324.656 137.595V144.732L325.656 144.73V137.593L324.656 137.595ZM346.892 143.78L346.392 143.781V144.281L346.892 144.28V143.78ZM346.892 138.088L347.392 138.087V137.587L346.892 137.588V138.088ZM341.242 138.099L340.742 138.1V138.6L341.242 138.599V138.099ZM341.242 135.72V135.22L340.742 135.221V135.721L341.242 135.72ZM346.892 135.709V136.209L347.392 136.208V135.708L346.892 135.709ZM346.892 130.059V129.559L346.392 129.56V130.06L346.892 130.059ZM349.299 130.054L349.799 130.053V129.553L349.299 129.554V130.054ZM349.299 135.704L348.799 135.705V136.205L349.299 136.204V135.704ZM354.949 135.693L355.449 135.692V135.192L354.949 135.193V135.693ZM354.949 138.071V138.571L355.449 138.57V138.07L354.949 138.071ZM349.299 138.083V137.583L348.799 137.584V138.084L349.299 138.083ZM349.299 143.775V144.275L349.799 144.274V143.774L349.299 143.775ZM347.392 143.779V138.087L346.392 138.089V143.781L347.392 143.779ZM346.892 137.588L341.242 137.599V138.599L346.892 138.588V137.588ZM341.742 138.098V135.719L340.742 135.721V138.1L341.742 138.098ZM341.242 136.22L346.892 136.209V135.209L341.242 135.22V136.22ZM347.392 135.708V130.058L346.392 130.06V135.71L347.392 135.708ZM346.892 130.559L349.299 130.554V129.554L346.892 129.559V130.559ZM348.799 130.055V135.705L349.799 135.703V130.053L348.799 130.055ZM349.299 136.204L354.949 136.193V135.193L349.299 135.204V136.204ZM354.449 135.694V138.072L355.449 138.07V135.692L354.449 135.694ZM354.949 137.571L349.299 137.583V138.583L354.949 138.571V137.571ZM348.799 138.084V143.776L349.799 143.774V138.082L348.799 138.084ZM349.299 143.275L346.892 143.28V144.28L349.299 144.275V143.275Z" fill="#767494"/>
<path d="M463.698 131.752V143.863H459.738V128.64H467.909C471.382 128.64 472.558 131.033 472.558 133.194V143.863H468.61V133.217C468.61 132.301 468.133 131.752 466.968 131.752H463.698ZM490.62 131.57C489.253 131.57 488.213 132.24 487.775 133.168C487.523 133.682 487.395 134.246 487.4 134.816H493.49C493.416 133.168 492.638 131.57 490.62 131.57ZM487.398 137.441C487.398 139.407 488.651 140.872 490.906 140.872C492.648 140.872 493.512 140.396 494.527 139.407L496.972 141.69C495.418 143.192 493.764 144.106 490.87 144.106C487.085 144.106 483.463 142.093 483.463 136.234C483.463 131.216 486.623 128.384 490.783 128.384C495.006 128.384 497.439 131.706 497.439 136.051V137.431H487.4L487.398 137.441ZM480.116 143.837C476.894 143.837 475.53 141.652 475.53 139.491V124.489H479.479V128.64H482.448V131.752H479.479V139.248C479.479 140.138 479.904 140.628 480.845 140.628H482.45V143.839L480.116 143.837ZM456.217 126.54H452.233V122.841H456.217V126.54ZM456.229 144.02C453.246 143.738 452.233 141.981 452.233 139.941V128.638H456.217V144.031L456.229 144.02ZM503.729 143.691C500.745 143.41 499.744 141.652 499.744 139.627V122.331H503.729V143.706V143.691ZM517.675 124.831C514.066 107.656 479.84 106.569 457.796 119.642V121.095C479.815 110.061 511.073 110.134 513.917 125.931C514.858 131.166 511.835 136.611 506.436 139.749V143.851C512.94 141.531 519.608 134.012 517.678 124.831H517.675ZM477.585 154.859C462.37 156.226 446.503 154.065 444.285 142.494C443.207 136.78 445.89 130.726 449.41 126.966V124.965C443.043 130.409 439.585 137.307 441.578 145.449C444.121 155.898 457.733 161.818 478.499 159.854C486.721 159.073 497.487 156.498 504.956 152.492V146.816C498.175 150.758 486.933 154.018 477.585 154.859ZM508.339 123.465C508.339 123.282 508.214 123.221 507.964 123.221H507.714V123.758H507.964C508.214 123.758 508.339 123.685 508.339 123.502V123.465ZM508.729 124.794H508.428C508.415 124.794 508.403 124.79 508.392 124.783C508.381 124.777 508.372 124.767 508.366 124.756L507.964 124.086C507.946 124.071 507.924 124.063 507.901 124.063H507.726V124.721C507.726 124.759 507.687 124.794 507.651 124.794H507.389C507.35 124.794 507.314 124.756 507.314 124.721V123.048C507.314 122.963 507.365 122.914 507.439 122.9C507.603 122.891 507.766 122.887 507.928 122.888C508.416 122.888 508.717 123.022 508.717 123.474V123.498C508.717 123.779 508.565 123.924 508.354 123.999L508.767 124.684C508.767 124.695 508.78 124.721 508.78 124.733C508.792 124.756 508.767 124.794 508.729 124.794ZM508.026 122.572C507.677 122.572 507.342 122.707 507.096 122.947C506.849 123.188 506.71 123.514 506.71 123.854C506.722 124.562 507.312 125.136 508.038 125.136C508.384 125.134 508.714 125 508.958 124.762C509.203 124.524 509.341 124.202 509.343 123.866C509.344 123.524 509.206 123.196 508.959 122.954C508.712 122.711 508.377 122.574 508.026 122.572ZM508.026 125.406C507.606 125.406 507.203 125.243 506.906 124.953C506.609 124.664 506.442 124.271 506.442 123.862C506.442 123.453 506.609 123.06 506.906 122.771C507.203 122.481 507.606 122.319 508.026 122.319C508.89 122.319 509.617 123.015 509.617 123.868C509.617 124.721 508.89 125.406 508.026 125.406Z" fill="#767494"/>
<path d="M617.968 127.713V124.248C618.355 124.213 618.703 124.213 619.092 124.213C629.447 123.927 636.234 132.429 636.234 132.429C636.234 132.429 628.903 141.753 621.034 141.753C619.982 141.753 618.975 141.608 617.968 141.287V130.749C621.999 131.215 622.813 132.82 625.22 136.535L630.61 132.356C630.61 132.356 626.654 127.608 620.061 127.608C619.365 127.608 618.667 127.643 617.968 127.713ZM617.968 116.212V121.392L619.092 121.319C633.482 120.853 642.868 132.178 642.868 132.178C642.868 132.178 632.085 144.288 620.875 144.288C619.9 144.292 618.926 144.208 617.968 144.037V147.254C618.744 147.324 619.558 147.397 620.372 147.397C630.806 147.397 638.368 142.468 645.699 136.681C646.902 137.574 651.864 139.753 652.912 140.68C645.968 146.038 629.758 150.363 620.565 150.363C619.709 150.368 618.855 150.319 618.006 150.218V154.791H657.681V116.212H617.968ZM617.968 141.325V144.075C608.31 142.468 605.634 133.216 605.634 133.216C605.634 133.216 610.289 128.5 617.968 127.713V130.717H617.927C613.896 130.25 610.713 133.75 610.713 133.75C610.713 133.75 612.541 139.61 617.968 141.325ZM600.821 132.823C600.821 132.823 606.524 125.035 617.968 124.248L617.965 121.427C605.286 122.355 594.348 132.216 594.348 132.216C594.348 132.216 600.555 148.753 617.968 150.253V147.254C605.169 145.79 600.821 132.823 600.821 132.823Z" fill="#767494"/>
<path d="M766.063 138.554C764.462 136.366 762.016 135.453 758.521 134.716L755.27 133.95L752.818 132.899C751.53 131.988 750.43 129.563 750.742 127.425C750.981 125.828 751.842 124.39 753.137 123.424C754.432 122.458 756.056 122.042 757.655 122.268C758.445 122.377 759.206 122.642 759.894 123.047C760.581 123.451 761.182 123.988 761.661 124.626L765.354 129.477C767.463 132.193 769.836 133.003 772.416 131.719L773.717 131.168C773.817 131.123 773.93 131.116 774.034 131.149C774.139 131.182 774.228 131.252 774.284 131.345L774.544 131.733C774.616 131.857 774.728 131.951 774.862 132.001C774.975 132.043 775.097 132.054 775.215 132.033C775.334 132.013 775.445 131.96 775.536 131.882L778.531 129.057C779.056 128.607 778.903 128.195 778.903 128.195L778.18 126.549C778.18 126.549 777.982 126.155 777.3 126.245L773.282 126.615C773.188 126.628 773.098 126.661 773.017 126.712C772.937 126.763 772.868 126.83 772.816 126.909C772.764 126.989 772.729 127.079 772.715 127.172C772.7 127.266 772.705 127.362 772.731 127.454L772.876 127.917C772.904 128.013 772.904 128.122 772.866 128.22C772.843 128.277 772.809 128.33 772.766 128.374C772.722 128.417 772.67 128.452 772.612 128.475L771.477 128.955C770.289 129.651 768.937 129.206 768.035 128.103L767.004 126.735L764.068 122.836C763.352 121.885 762.455 121.085 761.429 120.482C760.402 119.88 759.267 119.486 758.088 119.324C753.114 118.622 748.5 122.066 747.778 127.007C747.412 129.498 748.159 131.856 749.523 133.748C750.513 135.124 752.326 135.913 753.308 136.158L755.885 136.893L758.351 137.458C758.69 137.54 759.646 137.775 760.209 137.979C760.732 138.167 761.934 138.612 762.912 139.41C764.08 140.598 764.699 142.295 764.435 144.073C764.272 145.162 763.791 146.179 763.053 146.996C762.315 147.814 761.353 148.396 760.286 148.669C759.219 148.942 758.095 148.895 757.055 148.534C756.015 148.172 755.105 147.512 754.437 146.635L750.914 141.956C750.164 140.965 749.053 140.312 747.822 140.139C747.211 140.051 746.588 140.086 745.99 140.239C745.391 140.393 744.829 140.664 744.335 141.035L736.92 146.568C735.012 143.191 734.011 139.378 734.015 135.5C734.015 122.838 744.495 112.568 757.422 112.568C767.049 112.568 775.309 118.26 778.907 126.39L780.093 125.839L780.895 123.65L781.735 123.944L781.014 125.904L783.015 126.592L782.712 127.413L780.477 126.633L779.246 127.199C780.267 129.775 780.834 132.572 780.834 135.5C780.834 148.165 770.35 158.432 757.422 158.432C753.756 158.444 750.137 157.599 746.855 155.965C743.572 154.331 740.717 151.953 738.517 149.02L746.114 143.328C746.484 143.076 746.936 142.975 747.378 143.047C747.82 143.12 748.218 143.359 748.488 143.716L752.216 148.728C753.584 150.401 755.533 151.497 757.673 151.795C762.373 152.452 766.736 149.196 767.418 144.52C767.727 142.432 767.244 140.304 766.063 138.554Z" fill="#767494"/>
<path d="M904.933 127.269L909.35 131.754H916.592V139.105L921.015 143.59V127.269H904.933ZM858.681 128.37L853.015 142.63H856.723L857.772 139.807H864.065L865.221 142.63H869.012L862.739 128.37H858.681ZM870.607 128.37V142.616H874.114V133.726L877.905 138.217H878.438L882.229 133.743V142.63H885.737V128.37H882.68L878.169 133.674L873.661 128.37H870.607ZM888.409 128.37V142.63H894.237C899.844 142.63 902.397 139.623 902.397 135.523C902.397 131.613 899.742 128.37 894.614 128.37H888.409ZM891.913 130.986H894.157C897.472 130.986 898.776 133.03 898.776 135.5C898.776 137.593 897.722 140.019 894.197 140.019H891.913V130.986ZM860.789 131.771L863.03 137.326H858.704L860.789 131.771ZM909.344 132.654L904.799 137.262V143.731H911.163L915.708 139.111H909.344V132.654Z" fill="#767494"/>
<path d="M1028.44 140.808V130.037H1030.98V138.62H1035.44V140.804H1028.44V140.808ZM1008.05 134.095L1014.26 129.416L1016.01 130.818L1010.13 135.188L1011.4 136.28L1017.29 131.756L1019.04 133.16C1017.09 134.68 1015.12 136.188 1013.15 137.685L1014.42 138.779L1020.32 134.093L1020.31 130.039H1022.86V138.622H1027.48V140.806H1020.48V136.75L1014.26 141.429L1008.05 136.75C1007.75 138.238 1006.69 139.526 1005.32 140.208C1004.72 140.506 1004.08 140.696 1003.41 140.772C1003.03 140.817 1002.65 140.806 1002.27 140.806H998.34V130.039H1002.87C1004.05 130.05 1005.2 130.45 1006.13 131.176C1007.07 131.911 1007.75 132.956 1008.06 134.095M1000.73 132.223V138.777L1002.72 138.775C1003.13 138.761 1003.54 138.658 1003.92 138.474C1004.29 138.29 1004.62 138.028 1004.88 137.707C1005.31 137.169 1005.58 136.518 1005.65 135.834C1005.72 135.149 1005.58 134.46 1005.25 133.85C1005.05 133.463 1004.76 133.122 1004.41 132.853C1004.06 132.583 1003.65 132.39 1003.22 132.286C1002.88 132.205 1002.52 132.225 1002.16 132.221L1000.73 132.223ZM1015.64 111H1016.34C1020.27 111.05 1024.13 112.011 1027.6 113.803C1030.99 115.552 1033.93 118.036 1036.2 121.065C1039.26 125.149 1040.94 130.067 1041.01 135.133V135.868C1040.94 141.968 1038.53 147.819 1034.27 152.268C1031.98 154.67 1029.21 156.593 1026.14 157.922C1023.07 159.251 1019.75 159.957 1016.39 160H1015.64C1012.69 159.956 1009.76 159.399 1007.01 158.354C1003.65 157.076 1000.61 155.101 998.102 152.564C995.417 149.858 993.403 146.583 992.215 142.993C991.458 140.69 991.053 138.289 991.015 135.87V135.133C991.093 130.48 992.534 125.948 995.165 122.074C997.619 118.443 1001 115.506 1004.98 113.556C1008.29 111.934 1011.94 111.061 1015.64 111ZM1015.32 113.511C1010.43 113.647 1005.73 115.351 1001.93 118.36C998.816 120.816 996.429 124.038 995.01 127.697C992.951 133.066 993.096 139.008 995.413 144.275C997.011 147.875 999.562 150.991 1002.8 153.301C1005.74 155.404 1009.17 156.768 1012.77 157.274C1015.8 157.701 1018.93 157.528 1021.89 156.744C1025.94 155.671 1029.6 153.505 1032.46 150.492C1035.32 147.484 1037.26 143.748 1038.06 139.712C1038.68 136.545 1038.59 133.284 1037.8 130.153C1036.88 126.544 1035.04 123.222 1032.46 120.499C1029.87 117.776 1026.62 115.741 1023.01 114.583C1020.53 113.791 1017.93 113.429 1015.32 113.511Z" fill="#767494"/>
<path d="M1142.14 112.988V135.876H1145.53V112.988L1142.14 112.988ZM1131.5 114.78V121.666H1134.88V114.78H1131.5ZM1126.06 120.442V143.33H1129.45V120.442H1126.06ZM1136.82 120.451V127.336H1140.21V120.451H1136.82ZM1131.5 123.677V126.926H1134.88V123.677H1131.5H1131.5ZM1131.5 128.924V135.81H1134.88V128.924H1131.5L1131.5 128.924ZM1136.82 129.346V132.594H1140.21V129.346H1136.82ZM1136.82 134.606V141.491H1140.21V134.606H1136.82ZM1143.07 145.222V148.875C1142.46 148.119 1141.49 147.732 1140.54 147.732C1138.61 147.732 1137.2 149.309 1137.2 151.401C1137.2 153.493 1138.62 155.071 1140.54 155.071C1141.54 155.071 1142.59 154.62 1143.18 153.767L1143.25 154.878H1144.97V145.222L1143.07 145.222ZM1158.24 147.715C1156.32 147.715 1155.45 148.748 1155.45 149.839C1155.45 150.821 1156.07 151.722 1157.81 152.093C1158.78 152.318 1159.32 152.495 1159.32 152.993C1159.32 153.573 1158.8 153.798 1158.04 153.798C1156.99 153.798 1156.12 153.363 1155.55 153.025L1155.23 154.317C1156.09 154.825 1157.07 155.097 1158.08 155.105C1159.9 155.105 1161.01 154.189 1161.01 152.695C1161.01 151.761 1160.26 150.909 1158.39 150.522C1157.63 150.345 1157.14 150.136 1157.14 149.669C1157.14 149.251 1157.52 148.993 1158.29 148.993C1159.01 149.007 1159.72 149.207 1160.34 149.574L1160.65 148.343C1160.42 148.215 1159.41 147.715 1158.24 147.715ZM1115.45 147.726C1114.45 147.725 1113.4 148.176 1112.81 149.029L1112.74 147.923H1111.01V158.012H1112.92V153.924C1113.53 154.681 1114.5 155.067 1115.45 155.067C1117.37 155.069 1118.79 153.489 1118.79 151.396C1118.79 149.303 1117.37 147.726 1115.45 147.726ZM1123.26 147.73C1121.34 147.729 1119.92 149.308 1119.92 151.399C1119.92 153.491 1121.34 155.069 1123.26 155.069C1124.26 155.069 1125.31 154.618 1125.9 153.766L1125.97 154.875L1127.69 154.876V147.923H1125.97L1125.9 149.034C1125.31 148.184 1124.26 147.73 1123.26 147.73ZM1133.67 147.731C1132.59 147.731 1131.52 148.326 1131.05 149.212L1130.96 147.923H1129.22V154.873H1131.12V150.994C1131.12 150.028 1132.11 149.225 1133.01 149.225C1133.88 149.225 1134.36 149.675 1134.36 151.027V154.878H1136.27V150.741C1136.27 149.019 1135.56 147.731 1133.67 147.731ZM1149.42 147.734C1147.5 147.734 1146.08 149.311 1146.08 151.403C1146.08 153.495 1147.5 155.072 1149.42 155.072C1150.42 155.073 1151.47 154.622 1152.06 153.769L1152.13 154.879H1153.86V147.927H1152.13L1152.06 149.037C1151.47 148.188 1150.42 147.734 1149.42 147.734ZM1114.86 149.113C1115.98 149.113 1116.88 149.965 1116.88 151.398C1116.88 152.83 1115.98 153.684 1114.86 153.684C1113.74 153.684 1112.84 152.83 1112.84 151.398C1112.84 149.966 1113.75 149.113 1114.86 149.113ZM1123.85 149.113C1124.97 149.119 1125.87 149.968 1125.87 151.399C1125.87 152.831 1124.97 153.684 1123.85 153.684C1122.73 153.684 1121.83 152.831 1121.83 151.399C1121.83 149.966 1122.74 149.113 1123.85 149.113ZM1141.13 149.119C1142.25 149.119 1143.15 149.972 1143.15 151.404C1143.15 152.837 1142.25 153.69 1141.13 153.69C1140.01 153.689 1139.11 152.837 1139.11 151.405C1139.11 149.973 1140.01 149.119 1141.13 149.119V149.119ZM1150.01 149.119C1151.13 149.119 1152.03 149.972 1152.03 151.404C1152.03 152.837 1151.13 153.69 1150.01 153.69C1148.9 153.69 1147.99 152.837 1147.99 151.405C1147.99 149.973 1148.9 149.119 1150.01 149.119V149.119Z" fill="#767494"/>
</g>
<defs>
<clipPath id="clip0_14224_683">
<rect width="1268" height="152" fill="white" transform="translate(86.5 28)"/>
</clipPath>
</defs>
</svg>
