<svg xmlns="http://www.w3.org/2000/svg" viewBox="0 0 48 48"><title>Trading stock</title><g id="Trading_stock" data-name="Trading stock"><path d="M45,3H34.24A8,8,0,0,0,21.76,3H3A3,3,0,0,0,0,6V35a3,3,0,0,0,3,3H20.09l-.89,4H17a2,2,0,0,0-2,2v3a1,1,0,0,0,1,1H32a1,1,0,0,0,1-1V44a2,2,0,0,0-2-2H28.8l-.89-4H45a3,3,0,0,0,3-3V6A3,3,0,0,0,45,3ZM28,2a6,6,0,1,1-6,6A6,6,0,0,1,28,2ZM2,6A1,1,0,0,1,3,5H20.59A8,8,0,1,0,35.41,5H45a1,1,0,0,1,1,1V31H2ZM31,46H17V44H31Zm-4.25-4h-5.5l.89-4h3.72ZM46,35a1,1,0,0,1-1,1H3a1,1,0,0,1-1-1V33H46Z"/><path d="M9,17H8V14a1,1,0,0,0-2,0v3H5a1,1,0,0,0-1,1v6a1,1,0,0,0,1,1H6v3a1,1,0,0,0,2,0V25H9a1,1,0,0,0,1-1V18A1,1,0,0,0,9,17ZM8,23H6V19H8Z"/><path d="M17,13H16V10a1,1,0,0,0-2,0v3H13a1,1,0,0,0-1,1v6a1,1,0,0,0,1,1h1v3a1,1,0,0,0,2,0V21h1a1,1,0,0,0,1-1V14A1,1,0,0,0,17,13Zm-1,6H14V15h2Z"/><path d="M43,27H21a1,1,0,0,0,0,2H43A1,1,0,0,0,43,27Z"/><path d="M26,11h1v1a1,1,0,0,0,2,0V11c.94,0,1.62.12,1.92-.62S30.69,9.27,28.41,7H30a1,1,0,0,0,0-2H29V4a1,1,0,0,0-2,0V5c-.94,0-1.62-.12-1.92.62S25.31,6.73,27.59,9H26A1,1,0,0,0,26,11Z"/><path d="M21,26c.59,0,.48-.06,5-4.59l3.29,3.3a1,1,0,0,0,1.42,0C42.56,12.85,41,14.16,41,15a1,1,0,0,0,2,0c0-4.57.61-4-4-4a1,1,0,0,0,0,2h.59L30,22.59l-3.29-3.3a1,1,0,0,0-1.42,0l-5,5A1,1,0,0,0,21,26Z"/></g></svg>